<svg width="100%" height="100%" viewBox="0 0 2156 719" version="1.1" >
    <g transform="matrix(1,0,0,1,-552.467759,-145.766926)">
        <g transform="matrix(4.166667,0,0,4.166667,0,0)">
            <g>
                <g transform="matrix(1,0,0,1,192.9108,133.3549)">
                    <path d="M0,10.103L-16.098,-17.78L-26.364,-17.78L0,27.883L26.363,-17.78L16.098,-17.78L0,10.103Z" />
                </g>
                <g transform="matrix(1,0,0,1,153.0155,97.7954)">
                    <path d="M0,-23.438L79.79,-23.438L61.126,8.89L71.391,8.89L95.189,-32.328L-15.398,-32.328L8.399,8.89L18.665,8.89L0,-23.438Z" />
                </g>
                <g transform="matrix(1,0,0,1,219.2742,193.5662)">
                    <path d="M0,-77.991L13.532,-77.991L-26.363,-8.891L-66.259,-77.991L-52.727,-77.991L-57.86,-86.881L-81.657,-86.881L-26.363,8.89L28.93,-86.881L5.133,-86.881L0,-77.991Z" />
                </g>
                <g transform="matrix(-1,0,0,1,385.822,-505.56)">
                    <rect x="154.118" y="545.569" width="77.586" height="9.698" />
                </g>
            </g>
            <g transform="matrix(0.923378,0,0,0.923378,21.710742,12.329001)">
                <g transform="matrix(1.154058,0,0,1.154058,264.215693,43.945368)">
                    <path d="M0,62.269L0,0L18.993,0L24.212,37.985L29.431,0L48.569,0L48.569,62.269L37.188,62.269L37.188,17.397L30.011,62.269L18.848,62.269L11.236,17.397L11.236,62.269L0,62.269Z" />
                </g>
                <g transform="matrix(1.154058,0,0,1.154058,348.291148,58.166482)">
                    <path d="M0,37.623C0.386,36.657 0.58,35.303 0.58,33.563L0.58,3.118C0.58,1.765 0.399,0.665 0.036,-0.181C-0.326,-1.026 -1.063,-1.449 -2.175,-1.449C-4.253,-1.449 -5.292,0.122 -5.292,3.263L-5.292,33.636C-5.292,35.424 -5.074,36.778 -4.639,37.695C-4.205,38.614 -3.407,39.073 -2.247,39.073C-1.136,39.073 -0.387,38.59 0,37.623M-13.701,45.923C-16.31,42.854 -17.615,38.541 -17.615,32.983L-17.615,3.335C-17.615,-2.029 -16.31,-6.076 -13.701,-8.807C-11.091,-11.537 -7.274,-12.903 -2.247,-12.903C2.778,-12.903 6.597,-11.537 9.206,-8.807C11.816,-6.076 13.121,-2.029 13.121,3.335L13.121,32.983C13.121,38.59 11.816,42.915 9.206,45.959C6.597,49.004 2.778,50.526 -2.247,50.526C-7.274,50.526 -11.091,48.993 -13.701,45.923" />
                </g>
                <g transform="matrix(1.154058,0,0,1.154058,409.611228,56.662398)">
                    <path d="M0,40.231C2.271,40.231 3.407,39.12 3.407,36.897L3.407,4.783C3.407,3.382 3.298,2.331 3.081,1.63C2.863,0.93 2.464,0.459 1.885,0.216C1.305,-0.025 0.41,-0.146 -0.797,-0.146L-2.175,-0.146L-2.175,40.231L0,40.231ZM-14.716,-11.019L2.464,-11.019C6.91,-11.019 10.245,-9.787 12.468,-7.323C14.69,-4.858 15.827,-1.208 15.875,3.624L16.021,32.765C16.068,38.902 15.005,43.518 12.831,46.61C10.656,49.704 7.055,51.25 2.03,51.25L-14.716,51.25L-14.716,-11.019Z" />
                </g>
                <g transform="matrix(1.154058,0,0,1.154058,-40.387954,-523.20458)">
                    <rect x="412.037" y="491.44" width="12.034" height="62.269" />
                </g>
                <g transform="matrix(1.154058,0,0,1.154058,459.637578,48.128252)">
                    <path d="M0,55.02C-2.514,52.218 -3.77,47.699 -3.77,41.464L-3.77,35.375L8.48,35.375L8.48,43.132C8.48,46.225 9.471,47.771 11.453,47.771C12.564,47.771 13.338,47.445 13.773,46.792C14.208,46.14 14.426,45.041 14.426,43.494C14.426,41.464 14.184,39.786 13.701,38.456C13.217,37.127 12.601,36.016 11.852,35.122C11.102,34.228 9.762,32.838 7.828,30.953L2.465,25.589C-1.692,21.529 -3.77,17.035 -3.77,12.106C-3.77,6.79 -2.55,2.743 -0.109,-0.036C2.33,-2.815 5.896,-4.205 10.584,-4.205C16.189,-4.205 20.225,-2.718 22.689,0.253C25.154,3.226 26.387,7.877 26.387,14.208L13.701,14.208L13.628,9.931C13.628,9.11 13.398,8.457 12.939,7.974C12.479,7.491 11.84,7.249 11.019,7.249C10.051,7.249 9.326,7.515 8.844,8.046C8.359,8.579 8.119,9.304 8.119,10.221C8.119,12.251 9.278,14.353 11.598,16.528L18.848,23.487C20.538,25.13 21.939,26.689 23.052,28.163C24.162,29.637 25.057,31.377 25.734,33.382C26.41,35.388 26.748,37.768 26.748,40.522C26.748,46.66 25.625,51.312 23.378,54.477C21.131,57.642 17.422,59.225 12.25,59.225C6.596,59.225 2.512,57.823 0,55.02" />
                </g>
                <g transform="matrix(1.154058,0,0,1.154058,497.199637,43.945368)">
                    <path d="M0,62.269L0,0L24.937,0L24.937,12.033L12.687,12.033L12.687,24.139L24.429,24.139L24.429,35.883L12.687,35.883L12.687,50.163L25.733,50.163L25.733,62.269L0,62.269Z" />
                </g>
                <g transform="matrix(1.154058,0,0,1.154058,554.546409,103.175448)">
                    <path d="M0,-55.818C-1.136,-56.155 -2.501,-56.639 -4.096,-57.268C-4.869,-57.605 -5.617,-57.895 -6.343,-58.137C-7.067,-58.379 -7.696,-58.5 -8.228,-58.5C-9.63,-58.5 -10.717,-57.703 -11.489,-56.108L-16.781,-58.862C-15.719,-61.472 -14.57,-63.441 -13.338,-64.77C-12.105,-66.099 -10.329,-66.764 -8.01,-66.764C-6.754,-66.764 -5.617,-66.619 -4.603,-66.329C-3.588,-66.039 -2.26,-65.579 -0.616,-64.952C1.124,-64.178 2.429,-63.792 3.299,-63.792C4.651,-63.792 5.764,-64.662 6.633,-66.401L12.505,-64.517C11.78,-62.487 11.092,-60.856 10.438,-59.624C9.786,-58.391 8.917,-57.364 7.829,-56.543C6.742,-55.72 5.376,-55.31 3.733,-55.31C2.38,-55.31 1.136,-55.479 0,-55.818M-18.158,10.946L-18.158,-51.323L-5.328,-51.323L0.399,-21.53L0.399,-51.323L12.433,-51.323L12.433,10.946L0.254,10.946L-5.98,-20.225L-5.98,10.946L-18.158,10.946Z" />
                </g>
                <g transform="matrix(1.154058,0,0,1.154058,596.917544,58.166482)">
                    <path d="M0,37.623C0.387,36.657 0.58,35.303 0.58,33.563L0.58,3.118C0.58,1.765 0.398,0.665 0.036,-0.181C-0.326,-1.026 -1.063,-1.449 -2.175,-1.449C-4.253,-1.449 -5.292,0.122 -5.292,3.263L-5.292,33.636C-5.292,35.424 -5.074,36.778 -4.64,37.695C-4.204,38.614 -3.407,39.073 -2.247,39.073C-1.136,39.073 -0.388,38.59 0,37.623M-13.7,45.923C-16.311,42.854 -17.615,38.541 -17.615,32.983L-17.615,3.335C-17.615,-2.029 -16.311,-6.076 -13.7,-8.807C-11.091,-11.537 -7.273,-12.903 -2.247,-12.903C2.778,-12.903 6.597,-11.537 9.206,-8.807C11.816,-6.076 13.121,-2.029 13.121,3.335L13.121,32.983C13.121,38.59 11.816,42.915 9.206,45.959C6.597,49.004 2.778,50.526 -2.247,50.526C-7.273,50.526 -11.091,48.993 -13.7,45.923" />
                </g>
                <g transform="matrix(1.154058,0,0,1.154058,660.83137,98.155064)">
                    <path d="M0,-24.646C0.482,-25.177 0.917,-25.938 1.305,-26.93C1.69,-27.919 1.885,-28.875 1.885,-29.793C1.885,-31.243 1.184,-31.968 -0.218,-31.968C-0.798,-31.968 -1.258,-31.762 -1.595,-31.352C-1.934,-30.94 -2.103,-30.42 -2.103,-29.793C-2.103,-28.536 -1.595,-26.604 -0.58,-23.994L0,-24.646ZM-2.827,5.908C-2.2,5.208 -1.789,4.398 -1.595,3.48L-5.872,-6.813L-6.307,-6.161C-6.694,-5.581 -7.008,-4.663 -7.249,-3.407C-7.492,-2.149 -7.612,-0.917 -7.612,0.291L-7.612,0.653C-7.612,2.538 -7.467,4.06 -7.177,5.22C-6.887,6.379 -6.211,6.959 -5.147,6.959C-4.229,6.959 -3.456,6.609 -2.827,5.908M-15.586,12.034C-17.52,9.376 -18.485,5.921 -18.485,1.668C-18.485,-3.068 -17.81,-6.874 -16.456,-9.75C-15.104,-12.624 -12.977,-15.15 -10.076,-17.325C-12.445,-21.964 -13.629,-25.975 -13.629,-29.358C-13.629,-32.885 -12.481,-35.652 -10.186,-37.658C-7.891,-39.663 -4.93,-40.667 -1.306,-40.667C2.271,-40.667 5.206,-39.712 7.502,-37.803C9.797,-35.894 10.945,-33.224 10.945,-29.793C10.945,-24.766 8.166,-20.054 2.609,-15.657L4.856,-10.366C6.209,-13.941 8.238,-16.72 10.945,-18.702L15.875,-11.018C13.022,-8.794 10.703,-5.122 8.916,0L15.223,15.296L3.189,15.296L1.885,11.889C0.869,13.097 -0.424,14.088 -1.994,14.861C-3.564,15.633 -5.269,16.021 -7.104,16.021C-10.826,16.021 -13.653,14.692 -15.586,12.034" />
                </g>
                <g transform="matrix(1.154058,0,0,1.154058,276.387431,147.032318)">
                    <path d="M0,19.919L5.061,19.919L2.595,-8.435L2.076,-8.435L0,19.919ZM-12.328,37.827L-6.943,-17.908L11.938,-17.908L17.259,37.827L6.683,37.827L5.904,28.808L-0.844,28.808L-1.493,37.827L-12.328,37.827Z" />
                </g>
                <g transform="matrix(1.154058,0,0,1.154058,318.693131,166.874735)">
                    <path d="M0,-14.469C1.557,-14.469 2.335,-16.156 2.335,-19.53C2.335,-21 2.271,-22.103 2.141,-22.839C2.011,-23.574 1.773,-24.082 1.427,-24.364C1.081,-24.644 0.584,-24.785 -0.065,-24.785L-2.66,-24.785L-2.66,-14.469L0,-14.469ZM-14.015,-35.102L3.114,-35.102C5.839,-35.102 7.948,-34.485 9.44,-33.253C10.933,-32.02 11.938,-30.289 12.458,-28.062C12.977,-25.834 13.236,-22.99 13.236,-19.53C13.236,-16.372 12.824,-13.906 12.003,-12.133C11.181,-10.359 9.753,-9.126 7.721,-8.435C9.408,-8.088 10.629,-7.244 11.387,-5.904C12.143,-4.563 12.522,-2.746 12.522,-0.454L12.393,20.633L1.492,20.633L1.492,-1.168C1.492,-2.725 1.189,-3.719 0.584,-4.153C-0.022,-4.584 -1.125,-4.801 -2.725,-4.801L-2.725,20.633L-14.015,20.633L-14.015,-35.102Z" />
                </g>
                <g transform="matrix(1.154058,0,0,1.154058,357.928805,145.609479)">
                    <path d="M0,27.77C0.302,26.732 0.454,25.392 0.454,23.747L0.454,-2.336C0.454,-3.763 0.27,-4.888 -0.097,-5.71C-0.465,-6.531 -1.146,-6.943 -2.141,-6.943C-3.916,-6.943 -4.801,-5.428 -4.801,-2.401L-4.801,23.942C-4.801,25.499 -4.629,26.787 -4.282,27.802C-3.937,28.819 -3.202,29.327 -2.076,29.327C-0.996,29.327 -0.303,28.808 0,27.77M0.714,39.124C-0.931,39.427 -1.86,39.579 -2.076,39.579C-6.576,39.579 -9.992,38.292 -12.328,35.718C-14.664,33.145 -15.832,29.371 -15.832,24.396L-15.832,-2.531C-15.832,-7.332 -14.653,-10.976 -12.295,-13.463C-9.938,-15.95 -6.532,-17.194 -2.076,-17.194C2.378,-17.194 5.785,-15.95 8.143,-13.463C10.5,-10.976 11.679,-7.332 11.679,-2.531L11.679,24.396C11.679,28.981 10.641,32.615 8.564,35.296L13.366,38.346L9.603,44.964L0.714,39.124Z" />
                </g>
                <g transform="matrix(1.154058,0,0,1.154058,382.97487,130.857729)">
                    <path d="M0,48.468C-2.229,45.873 -3.341,42.023 -3.341,36.919L-3.341,-3.893L7.494,-3.893L7.494,36.465C7.494,38.239 7.667,39.623 8.013,40.617C8.359,41.613 9.094,42.11 10.219,42.11C11.343,42.11 12.079,41.623 12.425,40.65C12.771,39.676 12.944,38.281 12.944,36.465L12.944,-3.893L23.78,-3.893L23.78,36.919C23.78,42.023 22.666,45.873 20.438,48.468C18.21,51.063 14.804,52.361 10.219,52.361C5.634,52.361 2.228,51.063 0,48.468" />
                </g>
                <g transform="matrix(1.154058,0,0,1.154058,-40.387954,-365.906434)">
                    <rect x="396.401" y="426.557" width="10.771" height="55.735" />
                </g>
                <g transform="matrix(1.154058,0,0,1.154058,442.540204,126.365096)">
                    <path d="M0,55.735L0,10.706L-6.618,10.706L-6.618,0L17.778,0L17.778,10.706L11.16,10.706L11.16,55.735L0,55.735Z" />
                </g>
                <g transform="matrix(1.154058,0,0,1.154058,468.971371,126.365096)">
                    <path d="M0,55.735L0,0L22.32,0L22.32,10.771L11.355,10.771L11.355,21.607L21.866,21.607L21.866,32.117L11.355,32.117L11.355,44.9L23.034,44.9L23.034,55.735L0,55.735Z" />
                </g>
                <g transform="matrix(1.154058,0,0,1.154058,505.849419,130.183759)">
                    <path d="M0,49.117C-2.445,46.565 -3.666,43.062 -3.666,38.606L-3.666,12.912C-3.666,7.376 -2.563,3.202 -0.357,0.39C1.849,-2.422 5.309,-3.828 10.023,-3.828C14.133,-3.828 17.442,-2.702 19.951,-0.454C22.459,1.796 23.715,5.04 23.715,9.279L23.715,18.882L12.619,18.882L12.619,10.641C12.619,9.041 12.425,7.938 12.035,7.332C11.646,6.727 10.975,6.424 10.023,6.424C9.028,6.424 8.348,6.771 7.98,7.462C7.612,8.155 7.429,9.171 7.429,10.512L7.429,38.476C7.429,39.947 7.645,41.018 8.078,41.688C8.51,42.359 9.158,42.694 10.023,42.694C11.754,42.694 12.619,41.288 12.619,38.476L12.619,28.419L23.844,28.419L23.844,38.93C23.844,48.274 19.15,52.945 9.765,52.945C5.698,52.945 2.443,51.67 0,49.117" />
                </g>
                <g transform="matrix(1.154058,0,0,1.154058,545.497669,126.365096)">
                    <path d="M0,55.735L0,10.706L-6.618,10.706L-6.618,0L17.778,0L17.778,10.706L11.16,10.706L11.16,55.735L0,55.735Z" />
                </g>
                <g transform="matrix(1.154058,0,0,1.154058,575.036599,130.857729)">
                    <path d="M0,48.468C-2.229,45.873 -3.342,42.023 -3.342,36.919L-3.342,-3.893L7.494,-3.893L7.494,36.465C7.494,38.239 7.666,39.623 8.013,40.617C8.358,41.613 9.094,42.11 10.219,42.11C11.344,42.11 12.078,41.623 12.425,40.65C12.771,39.676 12.944,38.281 12.944,36.465L12.944,-3.893L23.779,-3.893L23.779,36.919C23.779,42.023 22.666,45.873 20.438,48.468C18.21,51.063 14.804,52.361 10.219,52.361C5.634,52.361 2.228,51.063 0,48.468" />
                </g>
                <g transform="matrix(1.154058,0,0,1.154058,625.91776,166.874735)">
                    <path d="M0,-14.469C1.557,-14.469 2.336,-16.156 2.336,-19.53C2.336,-21 2.271,-22.103 2.141,-22.839C2.012,-23.574 1.773,-24.082 1.428,-24.364C1.081,-24.644 0.584,-24.785 -0.065,-24.785L-2.66,-24.785L-2.66,-14.469L0,-14.469ZM-14.015,-35.102L3.114,-35.102C5.84,-35.102 7.948,-34.485 9.44,-33.253C10.933,-32.02 11.938,-30.289 12.457,-28.062C12.977,-25.834 13.236,-22.99 13.236,-19.53C13.236,-16.372 12.824,-13.906 12.003,-12.133C11.181,-10.359 9.754,-9.126 7.721,-8.435C9.408,-8.088 10.63,-7.244 11.387,-5.904C12.144,-4.563 12.522,-2.746 12.522,-0.454L12.393,20.633L1.492,20.633L1.492,-1.168C1.492,-2.725 1.189,-3.719 0.584,-4.153C-0.022,-4.584 -1.125,-4.801 -2.726,-4.801L-2.726,20.633L-14.015,20.633L-14.015,-35.102Z" />
                </g>
                <g transform="matrix(1.154058,0,0,1.154058,660.285847,147.032318)">
                    <path d="M0,19.919L5.062,19.919L2.596,-8.435L2.076,-8.435L0,19.919ZM-12.327,37.827L-6.942,-17.908L11.938,-17.908L17.259,37.827L6.684,37.827L5.904,28.808L-0.843,28.808L-1.492,37.827L-12.327,37.827Z" />
                </g>
            </g>
        </g>
    </g>
</svg>
