<?xml version="1.0" encoding="UTF-8" standalone="no"?><!DOCTYPE svg PUBLIC "-//W3C//DTD SVG 1.1//EN" "http://www.w3.org/Graphics/SVG/1.1/DTD/svg11.dtd"><svg width="100%" height="100%" viewBox="0 0 73 107" version="1.1" xmlns="http://www.w3.org/2000/svg" xmlns:xlink="http://www.w3.org/1999/xlink" xml:space="preserve" xmlns:serif="http://www.serif.com/" style="fill-rule:evenodd;clip-rule:evenodd;stroke-linejoin:round;stroke-miterlimit:2;"><g id="Capa-1" serif:id="Capa 1"><path d="M15.587,43.672l-15.587,-26.997l72.434,0l-15.587,26.997l-6.724,0l12.225,-21.174l-52.262,0l12.225,21.174l-6.724,0Zm41.26,0l15.587,0l-36.217,62.729l-36.216,-62.729l15.586,0l3.362,5.823l-8.863,0l26.131,45.26l26.131,-45.26l-8.863,0l3.362,-5.823Zm-37.898,5.823l6.724,0l10.544,18.263l10.544,-18.263l6.724,0l-17.268,29.909l-17.268,-29.909Zm-8.141,-49.495l50.818,0l-0,6.352l-50.818,-0l-0,-6.352Z" style="fill:#121618;"/></g></svg>