<?xml version="1.0" encoding="UTF-8" standalone="no"?>
<!DOCTYPE svg PUBLIC "-//W3C//DTD SVG 1.1//EN" "http://www.w3.org/Graphics/SVG/1.1/DTD/svg11.dtd">
<svg width="100%" height="100%" viewBox="0 0 996 294" version="1.1" xmlns="http://www.w3.org/2000/svg" xmlns:xlink="http://www.w3.org/1999/xlink" xml:space="preserve" xmlns:serif="http://www.serif.com/" style="fill-rule:evenodd;clip-rule:evenodd;stroke-miterlimit:10;">
    <g transform="matrix(1,0,0,1,-298.301092,-390.908915)">
        <g id="Página-1" serif:id="Página 1" transform="matrix(4.166667,0,0,4.166667,0,0)">
            <rect x="0" y="0" width="841.89" height="595.276" style="fill:none;"/>
            <g id="Capa-1" serif:id="Capa 1">
                <g transform="matrix(1,0,0,1,96.423,134.5363)">
                    <path d="M0,3.618L-5.766,-6.369L-9.443,-6.369L0,9.987L9.443,-6.369L5.766,-6.369L0,3.618Z" style="fill:rgb(18,22,24);fill-rule:nonzero;stroke:rgb(18,22,24);stroke-width:1px;"/>
                </g>
                <g transform="matrix(1,0,0,1,82.1329,121.7991)">
                    <path d="M0,-8.396L28.58,-8.396L21.895,3.184L25.572,3.184L34.096,-11.58L-5.515,-11.58L3.008,3.184L6.685,3.184L0,-8.396Z" style="fill:rgb(18,22,24);fill-rule:nonzero;stroke:rgb(18,22,24);stroke-width:1px;"/>
                </g>
                <g transform="matrix(1,0,0,1,105.8662,156.1029)">
                    <path d="M0,-27.936L4.847,-27.936L-9.443,-3.185L-23.733,-27.936L-18.886,-27.936L-20.725,-31.12L-29.249,-31.12L-9.443,3.184L10.362,-31.12L1.838,-31.12L0,-27.936Z" style="fill:rgb(18,22,24);fill-rule:nonzero;stroke:rgb(18,22,24);stroke-width:1px;"/>
                </g>
                <g transform="matrix(-1,0,0,1,192.845,-389.602)">
                    <rect x="82.527" y="490.702" width="27.791" height="3.474" style="fill:rgb(18,22,24);stroke:rgb(18,22,24);stroke-width:1px;"/>
                </g>
                <g transform="matrix(1.408372,0,0,1.408372,-49.349878,-48.857941)">
                    <g>
                        <g transform="matrix(25.9654,0,0,25.9654,120.8794,123.962)">
                            <path d="M0.074,-0L0.074,-0.716L0.217,-0.716L0.386,-0.209C0.402,-0.162 0.413,-0.126 0.42,-0.103C0.429,-0.129 0.441,-0.167 0.458,-0.218L0.63,-0.716L0.757,-0.716L0.757,-0L0.666,-0L0.666,-0.599L0.458,-0L0.373,-0L0.166,-0.609L0.166,-0L0.074,-0Z" style="fill:rgb(18,22,24);fill-rule:nonzero;"/>
                        </g>
                        <g transform="matrix(25.9654,0,0,25.9654,137.796631,123.962)">
                            <path d="M0.048,-0.349C0.048,-0.467 0.08,-0.56 0.144,-0.628C0.208,-0.695 0.29,-0.729 0.391,-0.729C0.457,-0.729 0.517,-0.713 0.57,-0.681C0.623,-0.65 0.663,-0.606 0.691,-0.549C0.719,-0.493 0.733,-0.429 0.733,-0.357C0.733,-0.284 0.718,-0.219 0.689,-0.162C0.66,-0.105 0.618,-0.061 0.564,-0.032C0.511,-0.003 0.453,0.012 0.391,0.012C0.323,0.012 0.263,-0.004 0.21,-0.037C0.157,-0.069 0.117,-0.114 0.089,-0.17C0.062,-0.226 0.048,-0.286 0.048,-0.349ZM0.146,-0.347C0.146,-0.261 0.169,-0.193 0.216,-0.143C0.262,-0.094 0.32,-0.069 0.39,-0.069C0.461,-0.069 0.52,-0.094 0.566,-0.144C0.612,-0.194 0.635,-0.265 0.635,-0.357C0.635,-0.416 0.625,-0.467 0.606,-0.51C0.586,-0.553 0.557,-0.587 0.519,-0.611C0.481,-0.635 0.439,-0.647 0.392,-0.647C0.325,-0.647 0.267,-0.624 0.219,-0.578C0.17,-0.532 0.146,-0.455 0.146,-0.347Z" style="fill:rgb(18,22,24);fill-rule:nonzero;"/>
                        </g>
                        <g transform="matrix(25.9654,0,0,25.9654,160.736289,123.962)">
                            <path d="M0.077,-0L0.077,-0.716L0.324,-0.716C0.379,-0.716 0.422,-0.712 0.451,-0.706C0.492,-0.696 0.527,-0.679 0.556,-0.654C0.594,-0.622 0.622,-0.582 0.641,-0.532C0.66,-0.482 0.669,-0.426 0.669,-0.362C0.669,-0.307 0.663,-0.259 0.65,-0.217C0.637,-0.175 0.621,-0.141 0.601,-0.113C0.581,-0.086 0.559,-0.064 0.536,-0.048C0.512,-0.032 0.484,-0.02 0.45,-0.012C0.417,-0.004 0.379,-0 0.335,-0L0.077,-0ZM0.172,-0.084L0.325,-0.084C0.372,-0.084 0.409,-0.089 0.436,-0.098C0.463,-0.106 0.484,-0.119 0.5,-0.135C0.522,-0.157 0.54,-0.187 0.552,-0.225C0.565,-0.263 0.571,-0.309 0.571,-0.363C0.571,-0.438 0.559,-0.496 0.534,-0.536C0.51,-0.576 0.48,-0.603 0.445,-0.617C0.419,-0.626 0.379,-0.631 0.322,-0.631L0.172,-0.631L0.172,-0.084Z" style="fill:rgb(18,22,24);fill-rule:nonzero;"/>
                        </g>
                        <g transform="matrix(25.9654,0,0,25.9654,174.77552,123.962)">
                            <rect x="0.093" y="-0.716" width="0.095" height="0.716" style="fill:rgb(18,22,24);fill-rule:nonzero;"/>
                        </g>
                        <g transform="matrix(25.9654,0,0,25.9654,177.27739,123.962)">
                            <path d="M0.045,-0.23L0.134,-0.238C0.139,-0.202 0.148,-0.173 0.164,-0.15C0.179,-0.127 0.203,-0.108 0.236,-0.094C0.268,-0.08 0.305,-0.073 0.346,-0.073C0.382,-0.073 0.414,-0.078 0.441,-0.089C0.469,-0.1 0.49,-0.114 0.503,-0.133C0.517,-0.152 0.523,-0.172 0.523,-0.194C0.523,-0.217 0.517,-0.236 0.504,-0.253C0.491,-0.27 0.469,-0.284 0.439,-0.295C0.42,-0.303 0.378,-0.315 0.312,-0.33C0.246,-0.346 0.2,-0.361 0.174,-0.375C0.14,-0.393 0.114,-0.415 0.097,-0.442C0.081,-0.468 0.072,-0.498 0.072,-0.531C0.072,-0.567 0.083,-0.601 0.103,-0.632C0.124,-0.663 0.153,-0.687 0.193,-0.704C0.232,-0.72 0.276,-0.728 0.324,-0.728C0.377,-0.728 0.424,-0.719 0.465,-0.702C0.505,-0.685 0.536,-0.66 0.558,-0.627C0.58,-0.594 0.592,-0.556 0.593,-0.514L0.502,-0.507C0.498,-0.553 0.481,-0.587 0.453,-0.61C0.425,-0.633 0.383,-0.645 0.328,-0.645C0.271,-0.645 0.229,-0.634 0.203,-0.613C0.177,-0.592 0.164,-0.567 0.164,-0.537C0.164,-0.511 0.173,-0.49 0.191,-0.474C0.21,-0.457 0.257,-0.44 0.334,-0.423C0.411,-0.405 0.464,-0.39 0.493,-0.377C0.534,-0.358 0.565,-0.333 0.585,-0.304C0.605,-0.274 0.615,-0.241 0.615,-0.202C0.615,-0.164 0.604,-0.128 0.582,-0.094C0.56,-0.061 0.529,-0.035 0.488,-0.016C0.447,0.003 0.401,0.012 0.35,0.012C0.285,0.012 0.231,0.003 0.187,-0.016C0.143,-0.035 0.109,-0.063 0.084,-0.101C0.059,-0.139 0.046,-0.182 0.045,-0.23Z" style="fill:rgb(18,22,24);fill-rule:nonzero;"/>
                        </g>
                        <g transform="matrix(25.9654,0,0,25.9654,189.883959,123.962)">
                            <path d="M0.079,-0L0.079,-0.716L0.597,-0.716L0.597,-0.631L0.174,-0.631L0.174,-0.412L0.57,-0.412L0.57,-0.328L0.174,-0.328L0.174,-0.084L0.613,-0.084L0.613,-0L0.079,-0Z" style="fill:rgb(18,22,24);fill-rule:nonzero;"/>
                        </g>
                        <g transform="matrix(25.9654,0,0,25.9654,202.490529,123.962)">
                            <path d="M0.076,-0L0.076,-0.716L0.173,-0.716L0.549,-0.154L0.549,-0.716L0.64,-0.716L0.64,-0L0.543,-0L0.167,-0.562L0.167,-0L0.076,-0ZM0.21,-0.76C0.21,-0.794 0.219,-0.821 0.238,-0.841C0.256,-0.861 0.28,-0.871 0.309,-0.871C0.329,-0.871 0.357,-0.862 0.392,-0.845C0.411,-0.835 0.426,-0.83 0.438,-0.83C0.448,-0.83 0.456,-0.833 0.461,-0.839C0.467,-0.844 0.471,-0.856 0.473,-0.873L0.537,-0.873C0.536,-0.835 0.526,-0.808 0.509,-0.789C0.491,-0.771 0.468,-0.761 0.441,-0.761C0.42,-0.761 0.393,-0.77 0.36,-0.789C0.338,-0.8 0.322,-0.806 0.312,-0.806C0.301,-0.806 0.292,-0.802 0.285,-0.794C0.278,-0.787 0.275,-0.775 0.275,-0.76L0.21,-0.76Z" style="fill:rgb(18,22,24);fill-rule:nonzero;"/>
                        </g>
                        <g transform="matrix(25.9654,0,0,25.9654,216.529759,123.962)">
                            <path d="M0.048,-0.349C0.048,-0.467 0.08,-0.56 0.144,-0.628C0.208,-0.695 0.29,-0.729 0.391,-0.729C0.457,-0.729 0.517,-0.713 0.57,-0.681C0.623,-0.65 0.663,-0.606 0.691,-0.549C0.719,-0.493 0.733,-0.429 0.733,-0.357C0.733,-0.284 0.718,-0.219 0.689,-0.162C0.66,-0.105 0.618,-0.061 0.564,-0.032C0.511,-0.003 0.453,0.012 0.391,0.012C0.323,0.012 0.263,-0.004 0.21,-0.037C0.157,-0.069 0.117,-0.114 0.089,-0.17C0.062,-0.226 0.048,-0.286 0.048,-0.349ZM0.146,-0.347C0.146,-0.261 0.169,-0.193 0.216,-0.143C0.262,-0.094 0.32,-0.069 0.39,-0.069C0.461,-0.069 0.52,-0.094 0.566,-0.144C0.612,-0.194 0.635,-0.265 0.635,-0.357C0.635,-0.416 0.625,-0.467 0.606,-0.51C0.586,-0.553 0.557,-0.587 0.519,-0.611C0.481,-0.635 0.439,-0.647 0.392,-0.647C0.325,-0.647 0.267,-0.624 0.219,-0.578C0.17,-0.532 0.146,-0.455 0.146,-0.347Z" style="fill:rgb(18,22,24);fill-rule:nonzero;"/>
                        </g>
                    </g>
                    <g transform="matrix(25.9654,0,0,25.9654,237.905458,123.962)">
                        <path d="M0.475,-0.084C0.446,-0.052 0.415,-0.028 0.38,-0.012C0.346,0.004 0.309,0.012 0.27,0.012C0.196,0.012 0.138,-0.013 0.095,-0.062C0.06,-0.102 0.043,-0.147 0.043,-0.197C0.043,-0.242 0.057,-0.281 0.086,-0.317C0.114,-0.353 0.157,-0.384 0.213,-0.411C0.181,-0.448 0.16,-0.478 0.149,-0.501C0.138,-0.525 0.133,-0.547 0.133,-0.568C0.133,-0.611 0.15,-0.649 0.183,-0.68C0.217,-0.712 0.259,-0.728 0.311,-0.728C0.359,-0.728 0.399,-0.713 0.43,-0.683C0.462,-0.653 0.477,-0.617 0.477,-0.575C0.477,-0.507 0.432,-0.449 0.342,-0.401L0.47,-0.237C0.485,-0.266 0.496,-0.299 0.504,-0.337L0.596,-0.317C0.58,-0.255 0.559,-0.203 0.532,-0.163C0.565,-0.119 0.602,-0.083 0.644,-0.053L0.585,0.017C0.549,-0.006 0.513,-0.04 0.475,-0.084ZM0.296,-0.458C0.334,-0.48 0.359,-0.5 0.37,-0.517C0.382,-0.534 0.387,-0.552 0.387,-0.573C0.387,-0.597 0.379,-0.617 0.364,-0.633C0.349,-0.648 0.329,-0.656 0.306,-0.656C0.282,-0.656 0.263,-0.648 0.247,-0.633C0.231,-0.618 0.223,-0.599 0.223,-0.577C0.223,-0.566 0.226,-0.554 0.232,-0.542C0.237,-0.53 0.246,-0.517 0.257,-0.503L0.296,-0.458ZM0.42,-0.154L0.259,-0.354C0.211,-0.325 0.179,-0.299 0.163,-0.275C0.146,-0.25 0.138,-0.226 0.138,-0.203C0.138,-0.174 0.149,-0.144 0.172,-0.112C0.195,-0.081 0.228,-0.065 0.271,-0.065C0.297,-0.065 0.324,-0.074 0.352,-0.09C0.38,-0.107 0.403,-0.128 0.42,-0.154Z" style="fill:rgb(18,22,24);fill-rule:nonzero;"/>
                    </g>
                </g>
                <g transform="matrix(1.408372,0,0,1.408372,-49.349878,-48.857941)">
                    <g>
                        <g transform="matrix(23.2406,0,0,23.2406,120.8794,147.2028)">
                            <path d="M-0.001,-0L0.273,-0.716L0.375,-0.716L0.668,-0L0.561,-0L0.477,-0.217L0.178,-0.217L0.099,-0L-0.001,-0ZM0.205,-0.294L0.448,-0.294L0.373,-0.492C0.35,-0.552 0.333,-0.602 0.322,-0.641C0.313,-0.595 0.3,-0.549 0.284,-0.504L0.205,-0.294Z" style="fill:rgb(18,22,24);fill-rule:nonzero;"/>
                        </g>
                        <g transform="matrix(23.2406,0,0,23.2406,131.954066,147.2028)">
                            <path d="M0.079,-0L0.079,-0.716L0.396,-0.716C0.46,-0.716 0.508,-0.709 0.542,-0.697C0.575,-0.684 0.601,-0.661 0.621,-0.628C0.641,-0.596 0.651,-0.56 0.651,-0.521C0.651,-0.47 0.634,-0.427 0.602,-0.392C0.569,-0.357 0.518,-0.335 0.449,-0.326C0.474,-0.314 0.493,-0.302 0.506,-0.29C0.534,-0.265 0.56,-0.233 0.585,-0.195L0.709,-0L0.59,-0L0.496,-0.149C0.468,-0.192 0.445,-0.225 0.427,-0.248C0.409,-0.27 0.393,-0.286 0.379,-0.295C0.365,-0.305 0.351,-0.311 0.336,-0.314C0.325,-0.317 0.308,-0.318 0.283,-0.318L0.173,-0.318L0.173,-0L0.079,-0ZM0.173,-0.4L0.377,-0.4C0.42,-0.4 0.454,-0.404 0.479,-0.413C0.503,-0.422 0.521,-0.437 0.534,-0.456C0.547,-0.476 0.553,-0.497 0.553,-0.521C0.553,-0.554 0.541,-0.582 0.516,-0.604C0.492,-0.626 0.453,-0.637 0.4,-0.637L0.173,-0.637L0.173,-0.4Z" style="fill:rgb(18,22,24);fill-rule:nonzero;"/>
                        </g>
                        <g transform="matrix(23.2406,0,0,23.2406,144.31105,147.2028)">
                            <path d="M0.62,-0.077C0.664,-0.046 0.704,-0.024 0.741,-0.01L0.713,0.056C0.662,0.037 0.611,0.008 0.56,-0.032C0.507,-0.003 0.448,0.012 0.384,0.012C0.319,0.012 0.26,-0.003 0.208,-0.035C0.155,-0.066 0.114,-0.11 0.086,-0.167C0.057,-0.223 0.043,-0.287 0.043,-0.358C0.043,-0.429 0.057,-0.493 0.086,-0.551C0.115,-0.609 0.155,-0.653 0.208,-0.683C0.261,-0.713 0.32,-0.729 0.386,-0.729C0.452,-0.729 0.511,-0.713 0.564,-0.681C0.618,-0.65 0.658,-0.606 0.686,-0.55C0.714,-0.493 0.728,-0.429 0.728,-0.358C0.728,-0.299 0.719,-0.247 0.701,-0.199C0.683,-0.152 0.656,-0.111 0.62,-0.077ZM0.411,-0.198C0.466,-0.182 0.511,-0.16 0.546,-0.129C0.602,-0.18 0.63,-0.257 0.63,-0.358C0.63,-0.416 0.62,-0.467 0.6,-0.51C0.581,-0.554 0.552,-0.587 0.514,-0.611C0.476,-0.635 0.433,-0.647 0.386,-0.647C0.316,-0.647 0.257,-0.623 0.21,-0.574C0.164,-0.526 0.141,-0.454 0.141,-0.358C0.141,-0.265 0.164,-0.193 0.21,-0.144C0.256,-0.094 0.315,-0.069 0.386,-0.069C0.42,-0.069 0.452,-0.075 0.482,-0.088C0.452,-0.107 0.421,-0.121 0.388,-0.129L0.411,-0.198Z" style="fill:rgb(18,22,24);fill-rule:nonzero;"/>
                        </g>
                        <g transform="matrix(23.2406,0,0,23.2406,157.9617,147.2028)">
                            <path d="M0.547,-0.716L0.642,-0.716L0.642,-0.302C0.642,-0.23 0.633,-0.173 0.617,-0.131C0.601,-0.089 0.572,-0.054 0.529,-0.028C0.487,-0.001 0.431,0.012 0.362,0.012C0.295,0.012 0.24,0.001 0.197,-0.022C0.155,-0.046 0.124,-0.079 0.106,-0.123C0.088,-0.167 0.079,-0.226 0.079,-0.302L0.079,-0.716L0.173,-0.716L0.173,-0.303C0.173,-0.241 0.179,-0.195 0.191,-0.165C0.202,-0.136 0.222,-0.113 0.25,-0.097C0.278,-0.081 0.313,-0.073 0.354,-0.073C0.423,-0.073 0.473,-0.089 0.502,-0.121C0.532,-0.152 0.547,-0.213 0.547,-0.303L0.547,-0.716Z" style="fill:rgb(18,22,24);fill-rule:nonzero;"/>
                        </g>
                        <g transform="matrix(23.2406,0,0,23.2406,170.318684,147.2028)">
                            <rect x="0.093" y="-0.716" width="0.095" height="0.716" style="fill:rgb(18,22,24);fill-rule:nonzero;"/>
                        </g>
                        <g transform="matrix(23.2406,0,0,23.2406,172.349035,147.2028)">
                            <path d="M0.259,-0L0.259,-0.631L0.023,-0.631L0.023,-0.716L0.591,-0.716L0.591,-0.631L0.354,-0.631L0.354,-0L0.259,-0Z" style="fill:rgb(18,22,24);fill-rule:nonzero;"/>
                        </g>
                        <g transform="matrix(23.2406,0,0,23.2406,182.118686,147.2028)">
                            <path d="M0.079,-0L0.079,-0.716L0.597,-0.716L0.597,-0.631L0.174,-0.631L0.174,-0.412L0.57,-0.412L0.57,-0.328L0.174,-0.328L0.174,-0.084L0.613,-0.084L0.613,-0L0.079,-0Z" style="fill:rgb(18,22,24);fill-rule:nonzero;"/>
                        </g>
                        <g transform="matrix(23.2406,0,0,23.2406,193.193352,147.2028)">
                            <path d="M0.588,-0.251L0.683,-0.227C0.663,-0.149 0.627,-0.09 0.575,-0.049C0.524,-0.008 0.461,0.012 0.386,0.012C0.309,0.012 0.246,-0.003 0.198,-0.035C0.15,-0.066 0.113,-0.112 0.088,-0.171C0.062,-0.231 0.05,-0.295 0.05,-0.363C0.05,-0.438 0.064,-0.503 0.093,-0.558C0.121,-0.614 0.162,-0.656 0.214,-0.685C0.267,-0.714 0.325,-0.728 0.388,-0.728C0.459,-0.728 0.52,-0.71 0.568,-0.673C0.617,-0.637 0.651,-0.586 0.67,-0.52L0.577,-0.498C0.561,-0.55 0.536,-0.588 0.505,-0.611C0.473,-0.635 0.434,-0.647 0.386,-0.647C0.331,-0.647 0.285,-0.634 0.248,-0.607C0.211,-0.581 0.185,-0.546 0.17,-0.501C0.155,-0.457 0.147,-0.411 0.147,-0.364C0.147,-0.303 0.156,-0.25 0.174,-0.204C0.192,-0.159 0.219,-0.125 0.257,-0.103C0.294,-0.08 0.335,-0.069 0.378,-0.069C0.431,-0.069 0.476,-0.084 0.513,-0.115C0.55,-0.145 0.575,-0.191 0.588,-0.251Z" style="fill:rgb(18,22,24);fill-rule:nonzero;"/>
                        </g>
                        <g transform="matrix(23.2406,0,0,23.2406,205.550336,147.2028)">
                            <path d="M0.259,-0L0.259,-0.631L0.023,-0.631L0.023,-0.716L0.591,-0.716L0.591,-0.631L0.354,-0.631L0.354,-0L0.259,-0Z" style="fill:rgb(18,22,24);fill-rule:nonzero;"/>
                        </g>
                        <g transform="matrix(23.2406,0,0,23.2406,215.319988,147.2028)">
                            <path d="M0.547,-0.716L0.642,-0.716L0.642,-0.302C0.642,-0.23 0.633,-0.173 0.617,-0.131C0.601,-0.089 0.572,-0.054 0.529,-0.028C0.487,-0.001 0.431,0.012 0.362,0.012C0.295,0.012 0.24,0.001 0.197,-0.022C0.155,-0.046 0.124,-0.079 0.106,-0.123C0.088,-0.167 0.079,-0.226 0.079,-0.302L0.079,-0.716L0.173,-0.716L0.173,-0.303C0.173,-0.241 0.179,-0.195 0.191,-0.165C0.202,-0.136 0.222,-0.113 0.25,-0.097C0.278,-0.081 0.313,-0.073 0.354,-0.073C0.423,-0.073 0.473,-0.089 0.502,-0.121C0.532,-0.152 0.547,-0.213 0.547,-0.303L0.547,-0.716Z" style="fill:rgb(18,22,24);fill-rule:nonzero;"/>
                        </g>
                        <g transform="matrix(23.2406,0,0,23.2406,227.676972,147.2028)">
                            <path d="M0.079,-0L0.079,-0.716L0.396,-0.716C0.46,-0.716 0.508,-0.709 0.542,-0.697C0.575,-0.684 0.601,-0.661 0.621,-0.628C0.641,-0.596 0.651,-0.56 0.651,-0.521C0.651,-0.47 0.634,-0.427 0.602,-0.392C0.569,-0.357 0.518,-0.335 0.449,-0.326C0.474,-0.314 0.493,-0.302 0.506,-0.29C0.534,-0.265 0.56,-0.233 0.585,-0.195L0.709,-0L0.59,-0L0.496,-0.149C0.468,-0.192 0.445,-0.225 0.427,-0.248C0.409,-0.27 0.393,-0.286 0.379,-0.295C0.365,-0.305 0.351,-0.311 0.336,-0.314C0.325,-0.317 0.308,-0.318 0.283,-0.318L0.173,-0.318L0.173,-0L0.079,-0ZM0.173,-0.4L0.377,-0.4C0.42,-0.4 0.454,-0.404 0.479,-0.413C0.503,-0.422 0.521,-0.437 0.534,-0.456C0.547,-0.476 0.553,-0.497 0.553,-0.521C0.553,-0.554 0.541,-0.582 0.516,-0.604C0.492,-0.626 0.453,-0.637 0.4,-0.637L0.173,-0.637L0.173,-0.4Z" style="fill:rgb(18,22,24);fill-rule:nonzero;"/>
                        </g>
                        <g transform="matrix(23.2406,0,0,23.2406,240.033956,147.2028)">
                            <path d="M-0.001,-0L0.273,-0.716L0.375,-0.716L0.668,-0L0.561,-0L0.477,-0.217L0.178,-0.217L0.099,-0L-0.001,-0ZM0.205,-0.294L0.448,-0.294L0.373,-0.492C0.35,-0.552 0.333,-0.602 0.322,-0.641C0.313,-0.595 0.3,-0.549 0.284,-0.504L0.205,-0.294Z" style="fill:rgb(18,22,24);fill-rule:nonzero;"/>
                        </g>
                    </g>
                </g>
            </g>
        </g>
    </g>
</svg>
